<svg viewBox="0 0 308 39" fill="none" xmlns="http://www.w3.org/2000/svg">
<path d="M23.5097 3.74052C26.0076 6.23419 27.2566 9.22104 27.2566 12.6971C27.2566 16.1751 26.0076 19.16 23.5097 21.6536C21.0117 24.1473 18.0197 25.3941 14.5377 25.3941H6.36048V38.0912H0V0H14.5377C18.0197 0 21.0097 1.24684 23.5097 3.74052ZM20.8961 12.6971C20.8961 10.9213 20.2806 9.4199 19.0515 8.19095C17.8205 6.964 16.3165 6.34953 14.5377 6.34953H6.36048V19.0466H14.5377C16.3544 19.0466 17.8504 18.4222 19.0237 17.1754C20.2726 15.9285 20.8961 14.4371 20.8961 12.6971Z" fill="white"/>
<path d="M44.0652 31.7437H54.9674V12.6971H61.3279V38.0932H37.7047V12.6971H44.0652V31.7437Z" fill="white"/>
<path d="M85.8575 11.7903C89.5666 11.7903 92.7657 13.1326 95.4549 15.8152C98.1422 18.4997 99.4868 21.6914 99.4868 25.3961C99.4868 29.1367 98.1422 32.3502 95.4549 35.0328C92.8056 37.6776 89.6064 39 85.8575 39C82.0707 39 78.8536 37.6776 76.2042 35.0328C73.5548 32.388 72.2281 29.1744 72.2281 25.3961V0H78.5886V13.9439C80.7101 12.5101 83.1324 11.7903 85.8575 11.7903ZM90.9689 20.2934C89.5307 18.8577 87.8256 18.1398 85.8575 18.1398C83.8894 18.1398 82.1842 18.8577 80.746 20.2934C79.3077 21.7292 78.5886 23.4314 78.5886 25.3961C78.5886 27.3609 79.3077 29.0631 80.746 30.4988C82.1842 31.9346 83.8874 32.6525 85.8575 32.6525C87.8256 32.6525 89.5287 31.9346 90.9689 30.4988C92.4072 29.0631 93.1263 27.3628 93.1263 25.3961C93.1263 23.4314 92.4072 21.7312 90.9689 20.2934Z" fill="white"/>
<path d="M119.02 6.34953H111.297V0H125.381V31.7437H134.921V38.0932H109.481V31.7437H119.02V6.34953Z" fill="white"/>
<path d="M161.723 12.6971V31.7437H171.263V38.0932H145.823V31.7437H155.363V19.0466H147.64V12.6971H161.723ZM154.908 7.25632V0H162.177V7.25632H154.908Z" fill="white"/>
<path d="M183.982 12.6971H205.786V19.0466H190.34V22.2204H205.786V38.0932H183.982V31.7437H199.428V28.5699H183.982V12.6971Z" fill="white"/>
<path d="M223.959 31.7437H244.855V38.0932H217.599V25.3961C217.599 21.6556 218.923 18.462 221.575 15.8152C224.262 13.1326 227.481 11.7903 231.228 11.7903C234.937 11.7903 238.136 13.1326 240.826 15.8152C243.513 18.4997 244.857 21.6914 244.857 25.3961V28.5699H223.961V31.7437H223.959ZM235.059 19.2455C233.865 18.5077 232.589 18.1398 231.226 18.1398C229.864 18.1398 228.587 18.5077 227.393 19.2455C226.2 19.9832 225.302 20.9735 224.696 22.2224H237.756C237.15 20.9735 236.252 19.9812 235.059 19.2455Z" fill="white"/>
<path d="M271.204 39C268.252 39 265.676 37.9421 263.481 35.8263C261.359 33.6348 260.301 31.0636 260.301 28.1165V19.0466H253.033V12.6971H260.301V3.6272H266.662V12.6971H275.747V19.0466H266.662V28.1165C266.662 29.3634 267.106 30.4312 267.997 31.3201C268.885 32.209 269.955 32.6525 271.206 32.6525C272.457 32.6525 273.524 32.209 274.415 31.3201C275.303 30.4332 275.749 29.3654 275.749 28.1165H282.11C282.11 31.1014 281.03 33.6726 278.873 35.8263C276.747 37.9421 274.194 39 271.204 39Z" fill="white"/>
<path d="M299.823 38.0932V29.9301H308V38.0932H299.823Z" fill="white"/>
</svg>
